<?xml version="1.0" encoding="utf-8"?>
<!-- Generator: Adobe Illustrator 23.0.1, SVG Export Plug-In . SVG Version: 6.00 Build 0)  -->
<svg version="1.1" xmlns="http://www.w3.org/2000/svg" xmlns:xlink="http://www.w3.org/1999/xlink" x="0px" y="0px"
	 width="800.278px" height="473.667px" viewBox="0 0 800.278 473.667" enable-background="new 0 0 800.278 473.667"
	 xml:space="preserve">
<g id="Layer_4">
</g>
<g id="Layer_1">
</g>
<g id="Isolation_Mode">
	<g>
		<rect x="0.278" y="0.113" fill="#222222" width="800" height="473.555"/>
		<g>
			<defs>
				<polyline id="SVGID_1_" points="800.278,473.668 0.278,473.668 0.278,0 800.278,0 800.278,473.668 				"/>
			</defs>
			<clipPath id="SVGID_2_">
				<use xlink:href="#SVGID_1_"  overflow="visible"/>
			</clipPath>
			<path clip-path="url(#SVGID_2_)" fill="#292929" d="M907.353,279.229l-173.676-28.754c-17.627,5.029-34.429,6.626-51.066,7.107
				c-16.695,0.393-22.106,0.72-37.938-2.369c-4.96-0.968-13.141-4.603-28.244-11.162c-4.34-1.912-8.707-4.061-12.919-6.56
				c2.025-40.078-8.23-81.057-32.071-117.306C510.986,28.272,385.821,1.807,292.389,61.276
				c-93.432,59.469-120.276,182.688-59.824,274.601c60.452,91.913,185.647,118.232,279.079,58.763
				c30.33-19.305,53.603-45.236,69.149-74.715c6.625-1.059,13.089-1.383,19.491-1.414c16.419,0.163,22.097,0.263,29.053,1.859
				c15.788,3.623,21.334,7.575,36.341,14.575c14.975,7.146,29.694,15.466,43.678,27.159l170.865,41.662
				c1.848,0.466,3.876,0.817,5.756,1.138c35.303,5.832,68.71-17.58,74.639-52.309C966.454,317.925,942.655,285.061,907.353,279.229z
				 M292.68,297.614c-39.013-59.316-21.691-138.821,38.604-177.2c60.297-38.378,141.115-21.339,180.128,37.978
				c39.012,59.315,21.691,138.821-38.605,177.199C412.512,373.97,331.693,356.931,292.68,297.614z"/>
			<path clip-path="url(#SVGID_2_)" fill="#292929" d="M800.253-25.454c48.653,73.974,73.201,156.44,75.693,238.729l-117.35-24.82
				c-5.157-44.794-18.855-89.191-42.142-130.589l-89.735,57.116c-3.72-7.454-7.871-14.764-12.604-21.96
				c-4.734-7.197-9.811-13.917-15.198-20.31l89.735-57.116C576.611-130.986,365.987-169.586,207.075-68.439
				C48.163,32.708-2.362,237.529,87.639,398.14l89.735-57.116c3.72,7.453,7.871,14.763,12.605,21.96
				c4.733,7.197,9.81,13.917,15.197,20.31l-89.735,57.117c112.041,146.581,322.666,185.182,481.578,84.034
				c41.951-26.701,76.292-60.578,102.527-98.989l119.273,25.147c-36.663,66.501-90.135,125.221-159.126,169.134
				C440.123,759.491,145.905,697.46,3.84,481.46S-75.167-23.975,144.402-163.73C363.97-303.485,658.188-241.454,800.253-25.454z"/>
		</g>
	</g>
</g>
</svg>
