<?xml version="1.0" encoding="utf-8"?>
<!-- Generator: Adobe Illustrator 23.0.1, SVG Export Plug-In . SVG Version: 6.00 Build 0)  -->
<svg version="1.1" xmlns="http://www.w3.org/2000/svg" xmlns:xlink="http://www.w3.org/1999/xlink" x="0px" y="0px"
	 width="97.158px" height="87.392px" viewBox="0 0 97.158 87.392" enable-background="new 0 0 97.158 87.392" xml:space="preserve">
<g id="Layer_4">
</g>
<g id="Layer_1">
</g>
<g id="Isolation_Mode">
	<g>
		<path fill="#575757" d="M10.992,0c2.597,0,4.982,0.905,6.824,2.325c0.332,0.271,0.393,0.785,0.121,1.057
			c-0.241,0.362-0.725,0.393-1.026,0.151C15.28,2.265,13.227,1.48,10.992,1.48c-5.284,0-9.513,4.137-9.513,9.301
			c0,5.043,4.229,9.18,9.513,9.18c2.234,0,4.288-0.725,5.858-2.054c0.362-0.241,0.846-0.181,1.057,0.182
			c0.302,0.271,0.241,0.815-0.091,1.057c-1.842,1.42-4.228,2.295-6.824,2.295C4.923,21.44,0,16.669,0,10.781
			C0,4.771,4.923,0.031,10.992,0z"/>
		<path fill="#575757" d="M31.734,12.471c0-2.597-2.114-4.348-4.711-4.348c-2.567,0-4.681,1.751-4.681,4.348v8.244v0.091
			l-0.03,0.121l-0.061,0.12c-0.091,0.182-0.241,0.302-0.453,0.362l-0.061,0.03h-0.06h-0.091c-0.212,0-0.423-0.091-0.574-0.241
			c-0.061-0.091-0.09-0.151-0.12-0.242c-0.03-0.09-0.03-0.15-0.03-0.241v-8.244V12.23V1.027c0-0.393,0.332-0.725,0.725-0.725
			c0.423,0,0.755,0.332,0.755,0.725v7.791c1.117-1.329,2.809-2.174,4.681-2.174c3.412,0,6.19,2.415,6.19,5.827v8.244
			c0,0.393-0.332,0.725-0.755,0.725c-0.393,0-0.725-0.332-0.725-0.725V12.471z"/>
		<path fill="#575757" d="M36.382,2.536c0-0.393,0.332-0.725,0.725-0.725c0.423,0,0.755,0.332,0.755,0.725v0.694
			c0,0.423-0.332,0.785-0.755,0.785c-0.393,0-0.725-0.362-0.725-0.785V2.536z M36.382,7.368c0-0.423,0.332-0.725,0.725-0.725
			c0.423,0,0.755,0.302,0.755,0.725v13.347c0,0.393-0.332,0.725-0.755,0.725c-0.393,0-0.725-0.332-0.725-0.725V7.368z"/>
		<path fill="#575757" d="M51.177,12.683c0-2.507-2.022-4.56-4.56-4.56c-2.506,0-4.529,2.053-4.59,4.56v8.032v0.121
			c-0.03,0.12-0.061,0.241-0.151,0.332c-0.12,0.181-0.332,0.271-0.543,0.271h-0.182c-0.211-0.061-0.393-0.211-0.482-0.393
			l-0.03-0.091l-0.03-0.06v-0.182v-8.032v-0.241V7.399c0-0.393,0.302-0.726,0.725-0.726c0.393,0,0.694,0.333,0.694,0.726v1.419
			c1.087-1.299,2.748-2.145,4.59-2.145c3.322,0,6.01,2.718,6.01,6.01v8.032c0,0.423-0.332,0.725-0.725,0.725
			s-0.726-0.302-0.726-0.725V12.683z"/>
		<path fill="#575757" d="M55.039,14.072c0-4.106,3.201-7.428,7.188-7.428c3.805,0,6.824,3.02,7.126,6.885v0.03v0.09
			c0,0.393-0.332,0.665-0.725,0.665H56.489c0.15,3.23,2.688,5.677,5.737,5.677c1.963,0,3.774-1.026,4.771-2.688
			c0.211-0.362,0.664-0.423,0.966-0.241c0.332,0.241,0.453,0.664,0.241,1.026c-1.268,2.023-3.473,3.352-5.979,3.352
			C58.24,21.44,55.039,18.118,55.039,14.072z M56.579,12.894h11.204c-0.483-2.777-2.839-4.801-5.557-4.801
			C59.448,8.093,57.123,10.086,56.579,12.894z"/>
		<path fill="#575757" d="M70.437,18.36c0.242-0.302,0.695-0.362,1.027-0.091c1.026,0.755,2.657,1.722,4.529,1.722
			c1.147,0,2.144-0.362,2.809-0.906c0.725-0.482,1.117-1.147,1.117-1.812c-0.03-0.694-0.302-1.178-1.057-1.812
			c-0.635-0.483-1.691-0.846-3.141-1.087l-0.061-0.03c-1.329-0.242-2.507-0.544-3.352-1.147c-0.937-0.544-1.601-1.511-1.601-2.658
			c0-1.178,0.664-2.204,1.601-2.898c0.875-0.604,2.113-0.996,3.623-0.996c1.902,0,3.262,0.875,4.409,1.6
			c0.332,0.242,0.423,0.695,0.211,1.027c-0.211,0.332-0.664,0.423-0.996,0.211c-1.087-0.725-2.175-1.479-3.624-1.479
			c-1.208,0-2.174,0.332-2.809,0.846c-0.604,0.483-0.936,1.087-0.936,1.69c0,0.604,0.271,1.027,0.846,1.48
			c0.664,0.452,1.66,0.815,3.02,1.026h0.061c1.419,0.211,2.566,0.634,3.593,1.208c0.967,0.634,1.661,1.781,1.661,3.02
			s-0.694,2.234-1.691,2.989c-1.026,0.755-2.234,1.178-3.684,1.178c-2.386-0.03-4.258-1.147-5.466-2.113
			C70.226,19.054,70.195,18.661,70.437,18.36z"/>
		<path fill="#575757" d="M82.845,14.072c0-4.106,3.201-7.428,7.188-7.428c3.805,0,6.824,3.02,7.126,6.885v0.03v0.09
			c0,0.393-0.332,0.665-0.725,0.665H84.295c0.15,3.23,2.688,5.677,5.737,5.677c1.963,0,3.774-1.026,4.771-2.688
			c0.211-0.362,0.664-0.423,0.966-0.241c0.332,0.241,0.453,0.664,0.241,1.026c-1.268,2.023-3.473,3.352-5.979,3.352
			C86.046,21.44,82.845,18.118,82.845,14.072z M84.385,12.894h11.203c-0.482-2.777-2.838-4.801-5.556-4.801
			C87.254,8.093,84.929,10.086,84.385,12.894z"/>
		<path fill="#DC2D26" d="M76.848,41.835v34.696c0,5.974-4.888,10.862-10.861,10.862H31.291c-5.975,0-10.862-4.888-10.862-10.862
			V41.835c0-5.974,4.888-10.862,10.862-10.862h34.695C71.96,30.973,76.848,35.861,76.848,41.835z"/>
		<polygon fill="#FDDD00" points="42.002,58.417 45.077,67.884 37.023,62.033 28.97,67.884 32.045,58.417 23.99,52.564 
			33.946,52.564 37.023,43.096 40.101,52.564 50.056,52.564 		"/>
		<polygon fill="#FDDD00" points="64.474,52.876 67.453,51.415 66.984,48.131 69.294,50.512 72.273,49.051 70.723,51.984 
			73.033,54.365 69.765,53.798 68.213,56.731 67.744,53.446 		"/>
		<polygon fill="#FDDD00" points="55.945,45.445 58.122,42.942 56.415,40.096 59.47,41.395 61.648,38.892 61.357,42.198 
			64.41,43.496 61.177,44.241 60.886,47.548 59.178,44.7 		"/>
		<polygon fill="#FDDD00" points="61.318,74.109 64.424,75.28 61.224,76.158 61.069,79.473 59.246,76.7 56.046,77.579 
			58.117,74.988 56.294,72.215 59.399,73.386 61.472,70.795 		"/>
		<polygon fill="#FDDD00" points="70.674,66.413 71.811,69.53 69.059,67.677 66.445,69.723 67.357,66.532 64.604,64.679 
			67.921,64.56 68.831,61.369 69.969,64.486 73.286,64.367 		"/>
	</g>
</g>
</svg>
