<?xml version="1.0" encoding="utf-8"?>
<!-- Generator: Adobe Illustrator 23.0.1, SVG Export Plug-In . SVG Version: 6.00 Build 0)  -->
<svg version="1.1" xmlns="http://www.w3.org/2000/svg" xmlns:xlink="http://www.w3.org/1999/xlink" x="0px" y="0px" width="83.39px"
	 height="87.403px" viewBox="0 0 83.39 87.403" enable-background="new 0 0 83.39 87.403" xml:space="preserve">
<g id="Layer_4">
</g>
<g id="Layer_1">
</g>
<g id="Isolation_Mode">
	<g>
		<path fill="#575757" d="M0,0.729C0,0.334,0.334,0,0.729,0h0.061H11.66c0.425,0,0.729,0.334,0.729,0.729
			c0,0.425-0.304,0.759-0.729,0.759H1.487v8.411h8.897c0.395,0,0.729,0.334,0.729,0.759c0,0.395-0.334,0.729-0.729,0.729H1.487
			v8.381H11.66c0.425,0,0.729,0.334,0.729,0.759c0,0.395-0.304,0.729-0.729,0.729H0.819H0.729H0.668C0.304,21.225,0,20.922,0,20.527
			V0.729z"/>
		<path fill="#575757" d="M25.873,12.45c0-2.521-2.035-4.585-4.586-4.585c-2.52,0-4.555,2.065-4.615,4.585v8.077v0.121
			c-0.03,0.122-0.061,0.243-0.151,0.334c-0.122,0.182-0.334,0.273-0.547,0.273h-0.183c-0.212-0.061-0.395-0.212-0.485-0.395
			l-0.03-0.091l-0.03-0.061v-0.182V12.45v-0.243V7.136c0-0.395,0.304-0.729,0.729-0.729c0.395,0,0.698,0.334,0.698,0.729v1.427
			c1.094-1.306,2.764-2.156,4.615-2.156c3.341,0,6.043,2.733,6.043,6.043v8.077c0,0.425-0.334,0.729-0.729,0.729
			s-0.729-0.304-0.729-0.729V12.45z"/>
		<path fill="#575757" d="M43.82,20.071c0,3.856-3.128,6.984-7.015,6.984c-1.093,0-2.125-0.273-3.097-0.698
			c-0.304-0.213-0.486-0.638-0.304-0.972c0.182-0.395,0.607-0.547,0.972-0.334c0.759,0.365,1.518,0.547,2.429,0.547
			c3.098,0,5.557-2.459,5.557-5.526v-1.822c-1.245,1.792-3.279,2.915-5.557,2.915c-3.887,0-6.983-3.31-6.983-7.409
			c0-4.008,3.097-7.379,6.983-7.379c2.277,0,4.312,1.154,5.557,2.915V7.106c0-0.395,0.334-0.729,0.76-0.729
			c0.364,0,0.698,0.334,0.698,0.729V20.071z M42.362,13.756c0-3.31-2.489-5.921-5.557-5.921c-3.036,0-5.526,2.611-5.526,5.921
			c0,3.34,2.49,5.982,5.526,5.982C39.873,19.737,42.362,17.095,42.362,13.756z"/>
		<path fill="#575757" d="M48.649,0.729C48.649,0.334,48.983,0,49.379,0c0.425,0,0.759,0.334,0.759,0.729v19.798
			c0,0.395-0.334,0.729-0.759,0.729c-0.396,0-0.729-0.334-0.729-0.729V0.729z"/>
		<path fill="#575757" d="M53.601,2.247c0-0.395,0.334-0.729,0.729-0.729c0.425,0,0.759,0.334,0.759,0.729v0.698
			c0,0.425-0.334,0.79-0.759,0.79c-0.395,0-0.729-0.364-0.729-0.79V2.247z M53.601,7.106c0-0.425,0.334-0.729,0.729-0.729
			c0.425,0,0.759,0.304,0.759,0.729v13.421c0,0.395-0.334,0.729-0.759,0.729c-0.395,0-0.729-0.334-0.729-0.729V7.106z"/>
		<path fill="#575757" d="M58.034,18.158c0.242-0.304,0.698-0.364,1.032-0.091c1.032,0.759,2.672,1.731,4.555,1.731
			c1.153,0,2.155-0.364,2.824-0.911c0.729-0.486,1.123-1.154,1.123-1.822c-0.03-0.698-0.304-1.184-1.063-1.822
			c-0.638-0.486-1.701-0.85-3.158-1.093l-0.061-0.03c-1.336-0.243-2.521-0.546-3.371-1.154c-0.941-0.547-1.609-1.519-1.609-2.672
			c0-1.184,0.668-2.216,1.609-2.915c0.881-0.607,2.126-1.002,3.645-1.002c1.912,0,3.279,0.881,4.433,1.609
			c0.334,0.243,0.426,0.698,0.213,1.032s-0.668,0.425-1.002,0.213c-1.094-0.729-2.187-1.488-3.644-1.488
			c-1.215,0-2.187,0.334-2.824,0.85c-0.607,0.486-0.941,1.093-0.941,1.7c0,0.607,0.273,1.033,0.851,1.488
			c0.668,0.455,1.67,0.82,3.036,1.032h0.061c1.428,0.212,2.581,0.638,3.613,1.214c0.972,0.638,1.67,1.792,1.67,3.037
			s-0.698,2.247-1.7,3.006c-1.032,0.759-2.247,1.184-3.704,1.184c-2.399-0.03-4.281-1.154-5.496-2.125
			C57.821,18.857,57.791,18.462,58.034,18.158z"/>
		<path fill="#575757" d="M81.901,12.237c0-2.611-2.125-4.373-4.736-4.373c-2.581,0-4.707,1.761-4.707,4.373v8.29v0.091l-0.03,0.122
			l-0.061,0.122c-0.091,0.182-0.243,0.303-0.455,0.364l-0.062,0.03H71.79h-0.091c-0.213,0-0.425-0.091-0.577-0.243
			c-0.061-0.091-0.091-0.151-0.121-0.243s-0.03-0.152-0.03-0.243v-8.29v-0.243V0.729C70.971,0.334,71.305,0,71.699,0
			c0.425,0,0.759,0.334,0.759,0.729v7.834c1.124-1.336,2.824-2.187,4.707-2.187c3.431,0,6.225,2.429,6.225,5.86v8.29
			c0,0.395-0.334,0.729-0.759,0.729c-0.395,0-0.729-0.334-0.729-0.729V12.237z"/>
		<path fill="#FFFFFF" d="M13.776,79.301h56.051c0.21-0.844,0.335-1.72,0.335-2.626v-5.499H13.441v5.499
			C13.441,77.581,13.565,78.458,13.776,79.301z"/>
		<path fill="#FFFFFF" d="M37.765,46.855h32.397v-5.061c0-1.065-0.161-2.094-0.449-3.069H37.765V46.855z"/>
		<polygon fill="#FFFFFF" points="37.765,54.945 13.441,54.945 13.441,63.075 70.162,63.075 70.162,54.945 		"/>
		<path fill="#EC2024" d="M22.366,87.402h38.871c4.199-0.785,7.563-3.99,8.59-8.101H13.776
			C14.803,83.413,18.167,86.618,22.366,87.402z"/>
		<rect x="13.441" y="63.075" fill="#EC2024" width="56.721" height="8.102"/>
		<rect x="37.765" y="46.855" fill="#EC2024" width="32.397" height="8.09"/>
		<path fill="#EC2024" d="M59.242,30.874H37.765v7.851h31.948C68.378,34.202,64.183,30.874,59.242,30.874z"/>
		<path fill="#27489D" d="M37.765,38.725v-7.851H24.361c-6.006,0-10.92,4.914-10.92,10.92v13.15h24.323v-8.09V38.725z"/>
	</g>
</g>
</svg>
