<?xml version="1.0" encoding="utf-8"?>
<!-- Generator: Adobe Illustrator 23.0.1, SVG Export Plug-In . SVG Version: 6.00 Build 0)  -->
<svg version="1.1" xmlns="http://www.w3.org/2000/svg" xmlns:xlink="http://www.w3.org/1999/xlink" x="0px" y="0px"
	 width="79.716px" height="87.595px" viewBox="0 0 79.716 87.595" enable-background="new 0 0 79.716 87.595" xml:space="preserve">
<g id="Layer_4">
</g>
<g id="Layer_1">
</g>
<g id="Isolation_Mode">
	<g>
		<path fill="#575757" d="M0,0.729C0,0.334,0.304,0.03,0.699,0H0.82h10.871c0.395,0,0.729,0.334,0.729,0.729
			c0,0.425-0.334,0.759-0.729,0.759H1.488v8.411h8.928c0.425,0,0.759,0.334,0.759,0.759c0,0.395-0.334,0.729-0.759,0.729H1.488v9.14
			c0,0.395-0.334,0.729-0.759,0.729C0.334,21.255,0,20.921,0,20.527V0.729z"/>
		<path fill="#575757" d="M13.788,7.136c0-0.425,0.334-0.729,0.759-0.729c0.364,0,0.698,0.304,0.698,0.729v3.279
			c0.061-0.122,0.122-0.243,0.213-0.364c1.123-1.761,3.097-3.644,5.951-3.644c0.395,0,0.729,0.304,0.729,0.729
			c0,0.395-0.334,0.729-0.729,0.729c-1.943,0-3.279,1.093-4.312,2.429c-1.002,1.336-1.579,2.854-1.792,3.462
			c-0.061,0.121-0.061,0.182-0.061,0.243v6.529c0,0.425-0.334,0.729-0.698,0.729c-0.425,0-0.759-0.304-0.759-0.729V7.136z"/>
		<path fill="#575757" d="M22.109,13.846c0-4.129,3.219-7.47,7.228-7.47c3.826,0,6.862,3.037,7.166,6.923v0.03v0.091
			c0,0.395-0.334,0.668-0.729,0.668H23.567c0.151,3.249,2.702,5.708,5.77,5.708c1.974,0,3.795-1.032,4.798-2.703
			c0.212-0.364,0.668-0.425,0.972-0.243c0.334,0.243,0.455,0.668,0.242,1.032c-1.275,2.035-3.491,3.371-6.012,3.371
			C25.328,21.255,22.109,17.915,22.109,13.846z M23.658,12.662h11.266c-0.485-2.793-2.854-4.828-5.587-4.828
			C26.542,7.834,24.205,9.838,23.658,12.662z"/>
		<path fill="#575757" d="M49.257,12.45c0-2.521-2.035-4.585-4.586-4.585c-2.52,0-4.555,2.065-4.615,4.585v8.077v0.121
			c-0.03,0.122-0.061,0.243-0.151,0.334c-0.122,0.182-0.334,0.273-0.547,0.273h-0.183c-0.212-0.061-0.395-0.212-0.485-0.395
			l-0.03-0.091l-0.03-0.061v-0.182V12.45v-0.243V7.136c0-0.395,0.304-0.729,0.729-0.729c0.395,0,0.698,0.334,0.698,0.729v1.427
			c1.093-1.306,2.764-2.156,4.615-2.156c3.341,0,6.043,2.733,6.043,6.043v8.077c0,0.425-0.334,0.729-0.729,0.729
			s-0.729-0.304-0.729-0.729V12.45z"/>
		<path fill="#575757" d="M52.538,13.786c0-4.13,3.401-7.409,7.652-7.409c1.762,0,3.432,0.607,4.737,1.64
			c0.304,0.213,0.364,0.668,0.091,1.002c-0.243,0.273-0.668,0.365-1.002,0.122c-1.062-0.85-2.399-1.336-3.826-1.336
			c-3.462,0-6.194,2.703-6.194,5.982c0,3.34,2.732,6.012,6.194,6.012c1.427,0,2.764-0.486,3.826-1.306
			c0.334-0.243,0.759-0.152,1.002,0.122c0.273,0.334,0.213,0.79-0.152,1.063c-1.244,0.972-2.914,1.579-4.676,1.579
			C55.939,21.255,52.538,17.976,52.538,13.786z"/>
		<path fill="#575757" d="M78.228,12.237c0-2.611-2.125-4.373-4.736-4.373c-2.581,0-4.707,1.761-4.707,4.373v8.29v0.091l-0.03,0.122
			l-0.061,0.122c-0.091,0.182-0.243,0.303-0.455,0.364l-0.062,0.03h-0.061h-0.091c-0.213,0-0.425-0.091-0.577-0.243
			c-0.061-0.091-0.091-0.151-0.121-0.243s-0.03-0.152-0.03-0.243v-8.29v-0.243V0.729C67.297,0.334,67.631,0,68.026,0
			c0.425,0,0.759,0.334,0.759,0.729v7.834c1.124-1.336,2.824-2.187,4.707-2.187c3.431,0,6.225,2.429,6.225,5.86v8.29
			c0,0.395-0.334,0.729-0.759,0.729c-0.395,0-0.729-0.334-0.729-0.729V12.237z"/>
		<rect x="30.512" y="30.875" fill="#FFFFFF" width="18.907" height="56.721"/>
		<path fill="#4857A6" d="M22.526,30.875c-6.006,0-10.92,4.914-10.92,10.92v34.88c0,6.006,4.914,10.92,10.92,10.92h7.986V30.875
			H22.526z"/>
		<path fill="#ED312F" d="M57.406,30.875h-7.986v56.721h7.986c6.007,0,10.92-4.914,10.92-10.92v-34.88
			C68.326,35.789,63.413,30.875,57.406,30.875z"/>
	</g>
</g>
</svg>
