<?xml version="1.0" encoding="utf-8"?>
<!-- Generator: Adobe Illustrator 23.0.1, SVG Export Plug-In . SVG Version: 6.00 Build 0)  -->
<svg version="1.1" xmlns="http://www.w3.org/2000/svg" xmlns:xlink="http://www.w3.org/1999/xlink" x="0px" y="0px"
	 width="99.241px" height="87.606px" viewBox="0 0 99.241 87.606" enable-background="new 0 0 99.241 87.606" xml:space="preserve">
<g id="Layer_4">
</g>
<g id="Layer_1">
</g>
<g id="Isolation_Mode">
	<g>
		<path fill="#575757" d="M10.832,11.954c-0.422,0-0.755-0.303-0.755-0.726s0.333-0.756,0.755-0.756h6.539h0.089
			c0.364,0.03,0.666,0.363,0.666,0.756v7.262v0.122c-0.029,0.212-0.121,0.423-0.272,0.545c-1.877,1.482-4.236,2.33-6.839,2.33
			C4.933,21.457,0,16.705,0,10.713C0,4.812,4.933,0,11.015,0c2.632,0,4.962,0.908,6.87,2.392c0.272,0.211,0.361,0.726,0.091,1.029
			c-0.243,0.303-0.696,0.363-1.061,0.121c-1.544-1.271-3.63-2.058-5.9-2.058c-5.296,0-9.534,4.146-9.534,9.229
			c0,5.145,4.238,9.291,9.534,9.291c2.058,0,4.024-0.666,5.599-1.815v-6.235H10.832z"/>
		<path fill="#575757" d="M19.945,14.103c0-4.116,3.208-7.445,7.204-7.445c3.813,0,6.838,3.026,7.142,6.9v0.03v0.092
			c0,0.393-0.333,0.666-0.726,0.666H21.399c0.149,3.238,2.691,5.689,5.75,5.689c1.966,0,3.782-1.029,4.78-2.693
			c0.212-0.363,0.666-0.423,0.97-0.242c0.333,0.242,0.453,0.666,0.241,1.029c-1.271,2.028-3.48,3.36-5.991,3.36
			C23.153,21.487,19.945,18.158,19.945,14.103z M21.488,12.922h11.228c-0.484-2.784-2.844-4.812-5.566-4.812
			C24.363,8.11,22.033,10.108,21.488,12.922z"/>
		<path fill="#575757" d="M35.774,7.414c0-0.423,0.333-0.726,0.757-0.726c0.362,0,0.695,0.303,0.695,0.726v3.268
			c0.061-0.121,0.122-0.241,0.212-0.363c1.119-1.755,3.087-3.631,5.932-3.631c0.393,0,0.726,0.303,0.726,0.726
			c0,0.393-0.333,0.726-0.726,0.726c-1.938,0-3.269,1.09-4.297,2.421c-0.998,1.332-1.574,2.845-1.786,3.45
			c-0.061,0.121-0.061,0.181-0.061,0.242v6.507c0,0.423-0.333,0.726-0.695,0.726c-0.424,0-0.757-0.303-0.757-0.726V7.414z"/>
		<path fill="#575757" d="M67.247,12.711c-0.061-2.512-2.058-4.601-4.6-4.601c-2.511,0-4.568,2.089-4.568,4.601v8.081v0.09
			l-0.031,0.06v0.061c-0.061,0.182-0.212,0.303-0.362,0.393c-0.122,0.062-0.243,0.092-0.364,0.092h-0.091H57.17l-0.061-0.03
			l-0.181-0.091l-0.092-0.061l-0.09-0.09l-0.06-0.061l-0.031-0.061l-0.029-0.061l-0.031-0.091v-0.09v-0.06v-8.081
			c0-2.512-2.028-4.601-4.57-4.601c-2.543,0-4.569,2.089-4.569,4.601v8.081c0,0.241-0.12,0.453-0.332,0.574l-0.182,0.091
			l-0.122,0.03h-0.09h-0.092c-0.272-0.03-0.514-0.272-0.605-0.545v-0.15v-8.081v-0.242V7.384c0-0.393,0.333-0.696,0.697-0.696
			c0.423,0,0.726,0.303,0.726,0.696v1.422c1.089-1.301,2.724-2.118,4.569-2.118c2.301,0,4.267,1.271,5.296,3.147
			c1.06-1.876,3.057-3.147,5.326-3.147c3.328,0,6.022,2.693,6.022,6.022v8.081c0,0.363-0.302,0.696-0.726,0.696
			c-0.394,0-0.697-0.333-0.697-0.696V12.711z"/>
		<path fill="#575757" d="M84.229,7.384v13.377c0,0.393-0.333,0.726-0.726,0.726c-0.394,0-0.727-0.333-0.727-0.726v-2.209
			c-1.271,1.755-3.299,2.936-5.568,2.936c-3.905,0-7.021-3.36-7.021-7.415c0-4.056,3.116-7.415,7.021-7.415
			c2.27,0,4.298,1.149,5.568,2.905V7.384c0-0.423,0.333-0.726,0.727-0.726C83.896,6.658,84.229,6.961,84.229,7.384z M82.777,14.073
			c0-3.33-2.513-5.993-5.568-5.993c-3.027,0-5.569,2.663-5.569,5.993c0,3.329,2.542,5.961,5.569,5.961
			C80.264,20.034,82.777,17.401,82.777,14.073z"/>
		<path fill="#575757" d="M97.789,12.711c0-2.512-2.028-4.57-4.57-4.57c-2.511,0-4.539,2.059-4.6,4.57v8.05v0.121
			c-0.029,0.121-0.061,0.242-0.149,0.333c-0.123,0.181-0.333,0.272-0.545,0.272h-0.184c-0.21-0.061-0.393-0.212-0.482-0.394
			l-0.031-0.091l-0.029-0.061v-0.181v-8.05v-0.242V7.414c0-0.393,0.302-0.726,0.727-0.726c0.393,0,0.694,0.333,0.694,0.726v1.423
			c1.09-1.301,2.755-2.149,4.6-2.149c3.331,0,6.022,2.723,6.022,6.022v8.05c0,0.423-0.332,0.726-0.726,0.726
			s-0.727-0.303-0.727-0.726V12.711z"/>
		<rect x="22.096" y="50.319" fill="#EC2024" width="56.533" height="18.634"/>
		<path d="M22.096,41.956v8.363h56.533v-8.363c0-5.986-4.898-10.883-10.884-10.883H32.979
			C26.994,31.073,22.096,35.971,22.096,41.956z"/>
		<path fill="#F5EA14" d="M78.629,76.723v-7.77H22.096v7.77c0,5.986,4.897,10.883,10.883,10.883h34.767
			C73.731,87.606,78.629,82.709,78.629,76.723z"/>
	</g>
</g>
</svg>
