<?xml version="1.0" encoding="utf-8"?>
<!-- Generator: Adobe Illustrator 23.0.1, SVG Export Plug-In . SVG Version: 6.00 Build 0)  -->
<svg version="1.1" xmlns="http://www.w3.org/2000/svg" xmlns:xlink="http://www.w3.org/1999/xlink" x="0px" y="0px"
	 width="68.844px" height="87.598px" viewBox="0 0 68.844 87.598" enable-background="new 0 0 68.844 87.598" xml:space="preserve">
<g id="Layer_4">
</g>
<g id="Layer_1">
</g>
<g id="Isolation_Mode">
	<g>
		<rect x="25.136" y="30.874" fill="#FFFFFF" width="18.908" height="56.724"/>
		<path fill="#21B14B" d="M17.148,30.874c-6.006,0-10.921,4.915-10.921,10.921v34.882c0,6.006,4.915,10.921,10.921,10.921h7.987
			V30.874H17.148z"/>
		<path fill="#EE3835" d="M52.03,30.874h-7.986v56.724h7.986c6.007,0,10.921-4.915,10.921-10.921V41.795
			C62.951,35.789,58.037,30.874,52.03,30.874z"/>
		<path fill="#575757" d="M0,0.728C0,0.334,0.334,0,0.729,0c0.425,0,0.759,0.334,0.759,0.729v19.798
			c0,0.395-0.334,0.729-0.759,0.729C0.334,21.255,0,20.921,0,20.527V0.728z"/>
		<path fill="#575757" d="M10.872,7.105c0,0.364-0.364,0.729-0.729,0.729H8.23v10.84c0,0.729,0.729,1.093,1.093,1.093
			s0.759,0.395,0.759,0.759c0,0.364-0.395,0.729-0.759,0.729c-1.488,0-2.611-1.093-2.611-2.581V7.834H4.859
			c-0.729,0-0.729-0.364-0.729-0.729c0-0.365,0-0.729,0.729-0.729h1.853V0.85c0-0.364,0.364-0.729,0.729-0.729
			c0.395,0,0.79,0.364,0.79,0.729v5.526h1.913C10.508,6.376,10.872,6.741,10.872,7.105z"/>
		<path fill="#575757" d="M26.358,7.105v13.421c0,0.395-0.334,0.729-0.729,0.729s-0.729-0.334-0.729-0.729V18.31
			c-1.275,1.761-3.31,2.945-5.588,2.945c-3.917,0-7.044-3.371-7.044-7.439s3.127-7.439,7.044-7.439c2.278,0,4.313,1.154,5.588,2.915
			V7.105c0-0.425,0.334-0.729,0.729-0.729S26.358,6.68,26.358,7.105z M24.901,13.816c0-3.34-2.521-6.012-5.588-6.012
			c-3.036,0-5.587,2.672-5.587,6.012s2.551,5.982,5.587,5.982C22.381,19.798,24.901,17.156,24.901,13.816z"/>
		<path fill="#575757" d="M30.277,0.728C30.277,0.334,30.611,0,31.007,0c0.425,0,0.759,0.334,0.759,0.729v19.798
			c0,0.395-0.334,0.729-0.759,0.729c-0.396,0-0.729-0.334-0.729-0.729V0.728z"/>
		<path fill="#575757" d="M35.835,2.247c0-0.395,0.334-0.729,0.729-0.729c0.425,0,0.759,0.334,0.759,0.729v0.698
			c0,0.425-0.334,0.79-0.759,0.79c-0.395,0-0.729-0.364-0.729-0.79V2.247z M35.835,7.105c0-0.425,0.334-0.729,0.729-0.729
			c0.425,0,0.759,0.304,0.759,0.729v13.421c0,0.395-0.334,0.729-0.759,0.729c-0.395,0-0.729-0.334-0.729-0.729V7.105z"/>
		<path fill="#575757" d="M53.781,7.105v13.421c0,0.395-0.334,0.729-0.729,0.729s-0.729-0.334-0.729-0.729V18.31
			c-1.275,1.761-3.31,2.945-5.587,2.945c-3.918,0-7.045-3.371-7.045-7.439s3.127-7.439,7.045-7.439c2.277,0,4.312,1.154,5.587,2.915
			V7.105c0-0.425,0.334-0.729,0.729-0.729S53.781,6.68,53.781,7.105z M52.324,13.816c0-3.34-2.521-6.012-5.587-6.012
			c-3.037,0-5.588,2.672-5.588,6.012s2.551,5.982,5.588,5.982C49.804,19.798,52.324,17.156,52.324,13.816z"/>
		<path fill="#575757" d="M67.387,12.45c0-2.521-2.035-4.585-4.586-4.585c-2.52,0-4.555,2.065-4.615,4.585v8.077v0.121
			c-0.03,0.122-0.061,0.243-0.151,0.334c-0.122,0.182-0.334,0.273-0.547,0.273h-0.183c-0.212-0.061-0.395-0.212-0.485-0.395
			l-0.03-0.091l-0.03-0.061v-0.182V12.45v-0.243V7.136c0-0.395,0.304-0.729,0.729-0.729c0.395,0,0.698,0.334,0.698,0.729v1.427
			c1.093-1.306,2.764-2.156,4.615-2.156c3.341,0,6.043,2.733,6.043,6.043v8.077c0,0.425-0.334,0.729-0.729,0.729
			s-0.729-0.304-0.729-0.729V12.45z"/>
	</g>
</g>
</svg>
