<?xml version="1.0" encoding="utf-8"?>
<!-- Generator: Adobe Illustrator 23.0.1, SVG Export Plug-In . SVG Version: 6.00 Build 0)  -->
<svg version="1.1" xmlns="http://www.w3.org/2000/svg" xmlns:xlink="http://www.w3.org/1999/xlink" x="0px" y="0px"
	 width="121.324px" height="87.402px" viewBox="0 0 121.324 87.402" enable-background="new 0 0 121.324 87.402"
	 xml:space="preserve">
<g id="Layer_4">
</g>
<g id="Layer_1">
</g>
<g id="Isolation_Mode">
	<g>
		<path fill="#575757" d="M0.52,15.334c0.395-0.121,0.819,0.091,0.911,0.455c0.759,2.339,2.915,4.009,5.465,3.979
			c3.158,0,5.739-2.551,5.739-5.709V0.729C12.636,0.334,12.97,0,13.364,0c0.396,0,0.729,0.334,0.729,0.729v13.33
			c0,4.008-3.219,7.196-7.197,7.196c-3.188,0-5.951-2.095-6.862-4.979C-0.087,15.881,0.126,15.455,0.52,15.334z"/>
		<path fill="#575757" d="M29.915,7.105v13.421c0,0.395-0.334,0.729-0.729,0.729s-0.729-0.334-0.729-0.729V18.31
			c-1.275,1.762-3.31,2.945-5.587,2.945c-3.918,0-7.045-3.37-7.045-7.439c0-4.068,3.127-7.439,7.045-7.439
			c2.277,0,4.312,1.154,5.587,2.915V7.105c0-0.426,0.334-0.729,0.729-0.729S29.915,6.68,29.915,7.105z M28.458,13.815
			c0-3.34-2.521-6.012-5.587-6.012c-3.037,0-5.588,2.672-5.588,6.012c0,3.341,2.551,5.982,5.588,5.982
			C25.937,19.798,28.458,17.156,28.458,13.815z"/>
		<path fill="#575757" d="M32.59,14.059v-0.304v-0.304V7.105c0-0.396,0.334-0.729,0.729-0.729c0.425,0,0.759,0.334,0.759,0.729
			v2.155c1.275-1.73,3.341-2.885,5.648-2.885c4.008,0,7.196,3.311,7.196,7.379c0,4.039-3.188,7.409-7.196,7.409
			c-2.308,0-4.373-1.154-5.648-2.915v8.502c0,0.395-0.334,0.729-0.759,0.729c-0.395,0-0.729-0.334-0.729-0.729V14.059z
			 M34.077,13.755c0,3.279,2.581,5.921,5.648,5.951c3.157-0.03,5.708-2.672,5.708-5.951s-2.551-5.891-5.708-5.891
			c-3.007,0-5.526,2.49-5.648,5.647V13.755z"/>
		<path fill="#575757" d="M62.682,7.105v13.421c0,0.395-0.334,0.729-0.729,0.729s-0.729-0.334-0.729-0.729V18.31
			c-1.275,1.762-3.31,2.945-5.587,2.945c-3.918,0-7.045-3.37-7.045-7.439c0-4.068,3.127-7.439,7.045-7.439
			c2.277,0,4.312,1.154,5.587,2.915V7.105c0-0.426,0.334-0.729,0.729-0.729S62.682,6.68,62.682,7.105z M61.225,13.815
			c0-3.34-2.521-6.012-5.587-6.012c-3.037,0-5.588,2.672-5.588,6.012c0,3.341,2.551,5.982,5.588,5.982
			C58.705,19.798,61.225,17.156,61.225,13.815z"/>
		<path fill="#575757" d="M75.682,12.449c0-2.521-2.035-4.585-4.586-4.585c-2.52,0-4.555,2.064-4.615,4.585v8.077v0.121
			c-0.03,0.122-0.061,0.243-0.151,0.334c-0.122,0.183-0.334,0.273-0.547,0.273h-0.183c-0.212-0.061-0.395-0.212-0.485-0.395
			l-0.03-0.091l-0.03-0.061v-0.183v-8.077v-0.243v-5.07c0-0.396,0.304-0.729,0.729-0.729c0.395,0,0.698,0.334,0.698,0.729v1.427
			c1.094-1.306,2.764-2.156,4.615-2.156c3.341,0,6.043,2.733,6.043,6.043v8.077c0,0.425-0.334,0.729-0.729,0.729
			s-0.729-0.304-0.729-0.729V12.449z"/>
		<path fill="#575757" d="M78.962,13.846c0-4.129,3.219-7.47,7.228-7.47c3.826,0,6.862,3.037,7.166,6.924v0.03v0.091
			c0,0.395-0.334,0.668-0.729,0.668H80.42c0.151,3.249,2.702,5.709,5.77,5.709c1.974,0,3.795-1.032,4.798-2.703
			c0.212-0.364,0.668-0.425,0.972-0.242c0.334,0.242,0.455,0.668,0.242,1.032c-1.275,2.034-3.491,3.37-6.012,3.37
			C82.181,21.255,78.962,17.915,78.962,13.846z M80.511,12.662h11.266c-0.485-2.794-2.854-4.828-5.587-4.828
			C83.395,7.834,81.057,9.838,80.511,12.662z"/>
		<path fill="#575757" d="M94.45,18.158c0.242-0.304,0.698-0.364,1.032-0.092c1.032,0.76,2.672,1.731,4.555,1.731
			c1.153,0,2.155-0.364,2.824-0.911c0.729-0.486,1.123-1.154,1.123-1.822c-0.03-0.698-0.304-1.184-1.063-1.821
			c-0.638-0.486-1.701-0.851-3.158-1.094l-0.061-0.03c-1.336-0.243-2.521-0.546-3.371-1.153c-0.941-0.547-1.609-1.519-1.609-2.673
			c0-1.184,0.668-2.216,1.609-2.915c0.881-0.606,2.126-1.002,3.645-1.002c1.912,0,3.279,0.881,4.433,1.609
			c0.334,0.243,0.426,0.698,0.213,1.032s-0.668,0.426-1.002,0.213c-1.094-0.729-2.187-1.487-3.644-1.487
			c-1.215,0-2.187,0.334-2.824,0.85c-0.607,0.486-0.941,1.094-0.941,1.7c0,0.607,0.273,1.033,0.851,1.488
			c0.668,0.455,1.67,0.82,3.036,1.032h0.061c1.428,0.213,2.581,0.638,3.613,1.215c0.972,0.638,1.67,1.791,1.67,3.036
			s-0.698,2.247-1.7,3.007c-1.032,0.759-2.247,1.184-3.704,1.184c-2.399-0.03-4.281-1.153-5.496-2.125
			C94.237,18.856,94.207,18.462,94.45,18.158z"/>
		<path fill="#575757" d="M106.931,13.846c0-4.129,3.219-7.47,7.228-7.47c3.826,0,6.862,3.037,7.166,6.924v0.03v0.091
			c0,0.395-0.334,0.668-0.729,0.668h-12.207c0.151,3.249,2.702,5.709,5.77,5.709c1.974,0,3.795-1.032,4.798-2.703
			c0.212-0.364,0.668-0.425,0.972-0.242c0.334,0.242,0.455,0.668,0.242,1.032c-1.275,2.034-3.491,3.37-6.012,3.37
			C110.149,21.255,106.931,17.915,106.931,13.846z M108.479,12.662h11.266c-0.485-2.794-2.854-4.828-5.587-4.828
			C111.364,7.834,109.026,9.838,108.479,12.662z"/>
		<path fill="#FFFFFF" d="M89.415,41.757V76.52c0,5.985-4.897,10.883-10.883,10.883H43.77c-5.986,0-10.883-4.897-10.883-10.883
			V41.757c0-5.986,4.896-10.883,10.883-10.883h34.762C84.517,30.874,89.415,35.772,89.415,41.757z"/>
		<circle fill="#EC2024" cx="61.151" cy="59.138" r="15.115"/>
	</g>
</g>
</svg>
