<?xml version="1.0" encoding="utf-8"?>
<!-- Generator: Adobe Illustrator 23.0.1, SVG Export Plug-In . SVG Version: 6.00 Build 0)  -->
<svg version="1.1" xmlns="http://www.w3.org/2000/svg" xmlns:xlink="http://www.w3.org/1999/xlink" x="0px" y="0px"
	 width="85.152px" height="87.534px" viewBox="0 0 85.152 87.534" enable-background="new 0 0 85.152 87.534" xml:space="preserve">
<g id="Layer_4">
</g>
<g id="Layer_1">
</g>
<g id="Isolation_Mode">
	<g>
		<path fill="#575757" d="M0,0.759C0,0.334,0.334,0,0.729,0c0.425,0,0.759,0.334,0.759,0.759v12.298L14.332,0.212
			c0.304-0.273,0.789-0.273,1.032,0c0.304,0.273,0.304,0.759,0,1.063L7.227,9.413l8.32,10.567c0.242,0.334,0.182,0.759-0.122,1.063
			c-0.151,0.122-0.304,0.152-0.485,0.152c-0.213,0-0.395-0.061-0.547-0.273L6.164,10.476l-4.677,4.676v5.314
			c0,0.395-0.334,0.729-0.759,0.729C0.334,21.195,0,20.861,0,20.466V0.759z"/>
		<path fill="#575757" d="M23.17,6.316c3.917,0,7.045,3.401,7.045,7.439s-3.128,7.439-7.045,7.439c-3.887,0-7.044-3.401-7.044-7.439
			S19.283,6.316,23.17,6.316z M23.17,19.737c3.037,0,5.588-2.672,5.588-5.982s-2.551-6.012-5.588-6.012
			c-3.036,0-5.587,2.703-5.587,6.012S20.134,19.737,23.17,19.737z"/>
		<path fill="#575757" d="M32.161,7.075c0-0.425,0.334-0.729,0.759-0.729c0.364,0,0.698,0.304,0.698,0.729v3.279
			c0.061-0.122,0.122-0.243,0.213-0.364c1.123-1.761,3.097-3.644,5.951-3.644c0.395,0,0.729,0.304,0.729,0.729
			c0,0.395-0.335,0.729-0.729,0.729c-1.943,0-3.279,1.093-4.312,2.429c-1.002,1.336-1.579,2.854-1.792,3.462
			c-0.061,0.121-0.061,0.182-0.061,0.243v6.529c0,0.425-0.334,0.729-0.698,0.729c-0.425,0-0.759-0.304-0.759-0.729V7.075z"/>
		<path fill="#575757" d="M40.481,13.786c0-4.129,3.219-7.47,7.228-7.47c3.826,0,6.862,3.037,7.166,6.923v0.03v0.091
			c0,0.395-0.334,0.668-0.729,0.668H41.939c0.151,3.249,2.702,5.708,5.77,5.708c1.974,0,3.795-1.032,4.798-2.703
			c0.212-0.364,0.668-0.425,0.972-0.243c0.334,0.243,0.455,0.668,0.242,1.032c-1.275,2.035-3.491,3.371-6.012,3.371
			C43.7,21.195,40.481,17.854,40.481,13.786z M42.03,12.601h11.266c-0.485-2.793-2.854-4.828-5.587-4.828
			C44.915,7.773,42.577,9.778,42.03,12.601z"/>
		<path fill="#575757" d="M70.696,7.045v13.421c0,0.395-0.334,0.729-0.729,0.729s-0.729-0.334-0.729-0.729v-2.217
			c-1.275,1.761-3.31,2.945-5.587,2.945c-3.918,0-7.045-3.371-7.045-7.439s3.127-7.439,7.045-7.439c2.277,0,4.312,1.154,5.587,2.915
			V7.045c0-0.425,0.334-0.729,0.729-0.729S70.696,6.62,70.696,7.045z M69.239,13.755c0-3.34-2.521-6.012-5.587-6.012
			c-3.037,0-5.588,2.672-5.588,6.012s2.551,5.982,5.588,5.982C66.719,19.737,69.239,17.096,69.239,13.755z"/>
		<path fill="#575757" d="M83.695,12.389c0-2.521-2.035-4.585-4.586-4.585c-2.52,0-4.555,2.065-4.615,4.585v8.077v0.121
			c-0.03,0.122-0.061,0.243-0.151,0.334c-0.122,0.182-0.334,0.273-0.547,0.273h-0.183c-0.212-0.061-0.395-0.212-0.485-0.395
			l-0.03-0.091l-0.03-0.061v-0.182v-8.077v-0.243V7.075c0-0.395,0.304-0.729,0.729-0.729c0.395,0,0.698,0.334,0.698,0.729v1.427
			c1.094-1.306,2.764-2.156,4.615-2.156c3.341,0,6.043,2.733,6.043,6.043v8.077c0,0.425-0.334,0.729-0.729,0.729
			s-0.729-0.304-0.729-0.729V12.389z"/>
		<path fill="#FFFFFF" d="M71.293,41.685v34.917c0,6.013-4.919,10.932-10.932,10.932H25.443c-6.013,0-10.932-4.919-10.932-10.932
			V41.685c0-6.012,4.919-10.932,10.932-10.932h34.918C66.374,30.753,71.293,35.673,71.293,41.685z"/>
		<polygon points="27.776,41.49 20.791,51.97 20.195,51.575 19.602,51.18 26.589,40.698 27.183,41.095 		"/>
		<polygon points="30.396,43.238 23.411,53.718 22.817,53.321 22.222,52.926 29.209,42.446 29.803,42.841 		"/>
		<polygon points="25.156,39.744 18.171,50.224 17.575,49.829 17.575,49.827 16.981,49.432 23.97,38.952 24.563,39.347 		"/>
		<polygon points="63.583,65.362 60.486,70.008 59.893,69.611 59.3,69.216 62.396,64.57 62.99,64.965 		"/>
		<polygon points="66.203,67.108 63.106,71.754 62.513,71.359 61.919,70.962 65.016,66.316 65.609,66.713 		"/>
		<polygon points="68.823,68.856 65.727,73.502 65.133,73.105 64.539,72.71 67.636,68.064 68.229,68.459 		"/>
		<polygon points="59.694,71.196 56.598,75.842 56.004,75.447 55.408,75.05 58.507,70.403 59.101,70.8 		"/>
		<polygon points="62.314,72.941 59.218,77.588 58.624,77.193 58.028,76.798 61.127,72.151 		"/>
		<polygon points="64.935,74.689 61.837,79.336 61.244,78.938 60.65,78.543 63.747,73.897 64.341,74.292 		"/>
		<path fill="#CC2D3A" d="M49.89,48.663c-5.788-3.858-13.608-2.294-17.467,3.494c-1.93,2.894-1.147,6.804,1.747,8.733
			c2.894,1.929,6.804,1.147,8.733-1.747c1.929-2.894,5.839-3.676,8.733-1.747c2.894,1.929,3.676,5.839,1.746,8.733
			C57.241,60.342,55.678,52.522,49.89,48.663z"/>
		<path fill="#124A9B" d="M51.637,57.397c-2.895-1.929-6.805-1.147-8.733,1.747c-1.93,2.894-5.84,3.676-8.733,1.747
			c-2.895-1.93-3.677-5.84-1.747-8.733c-3.858,5.788-2.295,13.608,3.493,17.466c5.788,3.859,13.608,2.295,17.467-3.493
			C55.313,63.236,54.53,59.326,51.637,57.397z"/>
		<polygon points="23.888,70.962 23.294,71.359 22.7,71.754 19.602,67.108 20.195,66.713 20.791,66.316 		"/>
		<polygon points="63.747,44.391 60.65,39.744 61.244,39.347 61.837,38.952 64.935,43.599 64.341,43.994 		"/>
		<polygon points="56.598,42.446 59.694,47.092 59.101,47.487 58.507,47.884 55.408,43.238 56.004,42.841 		"/>
		<polygon points="68.823,49.432 68.229,49.829 67.636,50.224 64.539,45.578 65.133,45.183 65.727,44.786 		"/>
		<polygon points="60.486,48.279 63.583,52.926 62.99,53.321 62.396,53.718 59.3,49.072 59.893,48.674 		"/>
		<polygon points="59.218,40.698 66.203,51.18 65.609,51.575 65.016,51.97 58.028,41.49 58.624,41.095 		"/>
		<polygon points="27.776,76.798 27.183,77.193 26.589,77.588 23.492,72.941 24.086,72.546 24.68,72.151 		"/>
		<polygon points="18.171,68.064 25.156,78.543 24.563,78.938 23.97,79.336 16.981,68.856 17.575,68.461 		"/>
		<polygon points="30.396,75.05 29.803,75.447 29.209,75.842 22.222,65.362 22.817,64.965 23.411,64.57 		"/>
	</g>
</g>
</svg>
