<?xml version="1.0" encoding="utf-8"?>
<!-- Generator: Adobe Illustrator 23.0.1, SVG Export Plug-In . SVG Version: 6.00 Build 0)  -->
<svg version="1.1" xmlns="http://www.w3.org/2000/svg" xmlns:xlink="http://www.w3.org/1999/xlink" x="0px" y="0px"
	 width="184.735px" height="39.727px" viewBox="0 0 184.735 39.727" enable-background="new 0 0 184.735 39.727"
	 xml:space="preserve">
<g id="Layer_4">
</g>
<g id="Layer_1">
</g>
<g id="Isolation_Mode">
	<g>
		<path fill="#FFFFFF" d="M1.07,0C0.49,0,0,0.491,0,1.07v29.07c0,0.579,0.49,1.07,1.07,1.07h0.089h15.962
			c0.624,0,1.115-0.49,1.115-1.07c0-0.624-0.491-1.115-1.115-1.115H2.185V1.07C2.185,0.491,1.694,0,1.07,0"/>
		<path fill="#FFFFFF" d="M29.913,29.07c-4.458,0-8.203-3.879-8.203-8.784c0-4.904,3.745-8.828,8.203-8.828
			c4.504,0,8.204,3.923,8.204,8.828C38.117,25.191,34.417,29.07,29.913,29.07 M39.188,9.363c-0.58,0-1.071,0.446-1.071,1.07v3.21
			c-1.872-2.586-4.859-4.28-8.204-4.28c-5.751,0-10.344,4.949-10.344,10.923c0,5.975,4.593,10.924,10.344,10.924
			c3.345,0,6.332-1.739,8.204-4.325v3.255c0,0.579,0.49,1.07,1.071,1.07c0.58,0,1.07-0.49,1.07-1.07V10.433
			C40.258,9.809,39.768,9.363,39.188,9.363"/>
		<path fill="#FFFFFF" d="M52.604,9.408c-2.72,0-5.172,1.248-6.777,3.166v-2.095c0-0.58-0.446-1.07-1.025-1.07
			c-0.624,0-1.07,0.49-1.07,1.07v7.446v0.356v11.86v0.267l0.045,0.089l0.044,0.134c0.134,0.268,0.401,0.49,0.714,0.58h0.267
			c0.312,0,0.624-0.134,0.803-0.401c0.134-0.134,0.178-0.312,0.223-0.49v-0.178V18.28c0.089-3.701,3.076-6.732,6.777-6.732
			c3.745,0,6.732,3.032,6.732,6.732v11.86c0,0.624,0.49,1.07,1.07,1.07c0.58,0,1.07-0.446,1.07-1.07V18.28
			C61.477,13.42,57.509,9.408,52.604,9.408"/>
		<path fill="#FFFFFF" d="M74.492,28.981c-4.458,0-8.114-3.879-8.114-8.783c0-4.86,3.656-8.694,8.114-8.694
			c4.504,0,8.159,3.834,8.159,8.694C82.651,25.102,78.996,28.981,74.492,28.981 M83.767,9.363c-0.624,0-1.116,0.49-1.116,1.07v3.21
			c-1.828-2.586-4.814-4.28-8.159-4.28c-5.707,0-10.255,4.949-10.255,10.834c0,6.019,4.548,10.879,10.255,10.879
			c3.345,0,6.331-1.65,8.159-4.28v2.675c0,4.503-3.611,8.115-8.159,8.115c-1.337,0-2.452-0.267-3.567-0.803
			c-0.164-0.096-0.337-0.141-0.506-0.141c-0.379,0-0.736,0.23-0.921,0.632c-0.267,0.49,0,1.114,0.445,1.427
			c1.427,0.624,2.944,1.025,4.548,1.025c5.707,0,10.3-4.593,10.3-10.255V10.433C84.792,9.853,84.302,9.363,83.767,9.363"/>
		<path fill="#FFFFFF" d="M105.119,9.319c-0.535,0-1.07,0.446-1.07,1.07v11.904c0,3.746-3.031,6.733-6.777,6.777
			c-3.7-0.044-6.687-3.032-6.687-6.777V10.389c0-0.624-0.49-1.07-1.071-1.07c-0.579,0-1.07,0.446-1.07,1.07v11.904
			c0,4.905,3.924,8.918,8.828,8.918c4.994,0,8.962-4.013,8.962-8.918V10.389C106.233,9.765,105.743,9.319,105.119,9.319"/>
		<path fill="#FFFFFF" d="M118.849,29.07c-4.459,0-8.204-3.879-8.204-8.784c0-4.904,3.745-8.828,8.204-8.828
			c4.503,0,8.203,3.923,8.203,8.828C127.052,25.191,123.352,29.07,118.849,29.07 M128.122,9.363c-0.58,0-1.07,0.446-1.07,1.07v3.21
			c-1.872-2.586-4.859-4.28-8.203-4.28c-5.752,0-10.345,4.949-10.345,10.923c0,5.975,4.593,10.924,10.345,10.924
			c3.344,0,6.331-1.739,8.203-4.325v3.255c0,0.579,0.49,1.07,1.07,1.07s1.07-0.49,1.07-1.07V10.433
			C129.192,9.809,128.702,9.363,128.122,9.363"/>
		<path fill="#FFFFFF" d="M141.672,28.981c-4.458,0-8.114-3.879-8.114-8.783c0-4.86,3.656-8.694,8.114-8.694
			c4.504,0,8.159,3.834,8.159,8.694C149.831,25.102,146.176,28.981,141.672,28.981 M150.946,9.363c-0.624,0-1.115,0.49-1.115,1.07
			v3.21c-1.828-2.586-4.815-4.28-8.159-4.28c-5.707,0-10.255,4.949-10.255,10.834c0,6.019,4.548,10.879,10.255,10.879
			c3.345,0,6.331-1.65,8.159-4.28v2.675c0,4.503-3.611,8.115-8.159,8.115c-1.337,0-2.452-0.267-3.567-0.803
			c-0.164-0.096-0.337-0.141-0.506-0.141c-0.379,0-0.736,0.23-0.921,0.632c-0.268,0.49,0,1.114,0.445,1.427
			c1.427,0.624,2.943,1.025,4.548,1.025c5.707,0,10.3-4.593,10.3-10.255V10.433C151.972,9.853,151.481,9.363,150.946,9.363"/>
		<path fill="#FFFFFF" d="M156.783,18.593c0.802-4.147,4.235-7.089,8.337-7.089c4.012,0,7.49,2.987,8.204,7.089H156.783
			 M165.12,9.363c-5.885,0-10.611,4.904-10.611,10.968c0,5.975,4.727,10.879,10.611,10.879c3.701,0,6.956-1.962,8.828-4.949
			c0.312-0.535,0.134-1.159-0.357-1.516c-0.16-0.096-0.349-0.146-0.54-0.146c-0.34,0-0.687,0.16-0.887,0.503
			c-1.472,2.452-4.146,3.968-7.045,3.968c-4.503,0-8.248-3.611-8.471-8.382h17.923c0.58,0,1.07-0.401,1.07-0.981v-0.134v-0.045
			C175.197,13.822,170.738,9.363,165.12,9.363"/>
		<path fill="#FFFFFF" d="M182.506,26.752c-1.248,0-2.23,0.981-2.23,2.229c0,1.249,0.981,2.23,2.23,2.23
			c1.248,0,2.229-0.981,2.229-2.23C184.735,27.733,183.754,26.752,182.506,26.752 M182.506,8.025c-1.248,0-2.23,0.981-2.23,2.23
			c0,1.249,0.981,2.23,2.23,2.23c1.248,0,2.229-0.981,2.229-2.23C184.735,9.007,183.754,8.025,182.506,8.025"/>
	</g>
</g>
</svg>
